<?xml version="1.0" encoding="utf-8"?>
<!-- Generator: Adobe Illustrator 24.0.2, SVG Export Plug-In . SVG Version: 6.00 Build 0)  -->
<svg version="1.1" id="Layer_1" xmlns="http://www.w3.org/2000/svg" xmlns:xlink="http://www.w3.org/1999/xlink" x="0px" y="0px"
	 viewBox="0 0 1080 1080" style="enable-background:new 0 0 1080 1080;" xml:space="preserve">
<style type="text/css">
	.st0{fill-rule:evenodd;clip-rule:evenodd;}
	.st1{fill-rule:evenodd;clip-rule:evenodd;fill:none;}
	.st2{fill-rule:evenodd;clip-rule:evenodd;fill:#FCFCFC;}
	.st3{fill:#FCFCFC;}
</style>
<g>
	<path class="st0" d="M371.22,243.86c-35.78,61.92-194.42,336.75-233.27,404.05h108.11l125.19-216.77l28.48,49.36l54.06-93.64
		C435.91,355.93,389.64,275.77,371.22,243.86z"/>
	<line class="st1" x1="751.22" y1="509.73" x2="748.81" y2="505.58"/>
	<path class="st0" d="M900,580.28l38.7,67.33H830.78c-0.73-1.26-3.62-6.26-7.87-13.65c-20.26-35.09-71.7-124.16-71.7-124.23
		l-2.41-4.15l-46.29-80.15h97.72c59.24-0.08,59.94-90.03,0-90.33c-37.25-0.03-112.24,0-149.87,0l-54.01-93.62h213.88
		c138.88,9.53,180.83,201.74,47.17,264.9v0.03c0.2,0.33,0.45,0.75,0.73,1.28c0.55,0.93,1.28,2.16,2.14,3.67
		c0.3,0.53,0.6,1.08,0.95,1.66l0.53,0.9c0.18,0.3,0.35,0.63,0.55,0.96c0.1,0.18,0.23,0.38,0.33,0.58c0.23,0.38,0.45,0.78,0.68,1.18
		c1.46,2.51,3.14,5.4,4.95,8.57c0.5,0.85,1.01,1.73,1.53,2.64c2.14,3.69,4.47,7.74,6.94,12.04c2.04,3.52,4.15,7.19,6.36,10.98v0.03
		l4.45,7.69l2.84,4.93c1.43,2.49,2.89,5,4.32,7.51l5.15,8.97L900,580.28z"/>
	<path class="st0" d="M810.22,241.49h-21.99C795.8,240.99,803.14,240.99,810.22,241.49z"/>
	<path class="st0" d="M864.41,647.61c-1.76,0.2-3.54,0.3-5.38,0.3h-28.07c-0.03-0.03-0.08-0.13-0.18-0.3H864.41z"/>
	<path class="st0" d="M899.85,580l-5.15-8.97c1.46,2.51,2.92,5.05,4.37,7.57C899.34,579.05,899.6,579.53,899.85,580z"/>
	<path class="st0" d="M411.19,647.92l125.5-217.36c0,0,125.5,217.36,125.5,217.36l108.11,0
		c-40.97-70.95-196.09-339.65-234.08-405.45l-19.05,34.65c-62.98,109.05-150.5,260.68-214.1,370.8L411.19,647.92z"/>
</g>
<g>
	<g>
		<path d="M146.48,780.59v-71.83h13.75l30.58,50.69h-7.29l29.96-50.69h13.85v71.83h-15.5l-0.21-47.92h3.08l-24.22,40.23h-7.39
			l-24.53-40.23h3.39v47.92H146.48z"/>
		<path d="M244.48,780.59v-71.83h31.09c6.43,0,11.97,1.04,16.62,3.13c4.65,2.09,8.24,5.08,10.77,8.98c2.53,3.9,3.8,8.52,3.8,13.85
			c0,5.41-1.27,10.04-3.8,13.91c-2.53,3.87-6.12,6.81-10.77,8.83c-4.65,2.02-10.19,3.03-16.62,3.03h-21.96l7.59-7.18v27.3H244.48z
			 M261.2,755.14l-7.59-7.9h21.04c5.06,0,8.89-1.09,11.49-3.28c2.6-2.19,3.9-5.27,3.9-9.24c0-3.97-1.3-7.03-3.9-9.18
			c-2.6-2.16-6.43-3.23-11.49-3.23h-21.04l7.59-7.9V755.14z M290.24,780.59l-18.06-26.07h17.86l18.06,26.07H290.24z"/>
		<path d="M369.88,780.59v-26.07l1.23,3.39l-30.17-49.16h5.75l27.4,44.64h-2.87l27.4-44.64h5.44l-30.17,49.16l1.23-3.39v26.07
			H369.88z"/>
		<path d="M422.31,775.87h44.33v4.72h-49.57v-71.83h48.03v4.72h-42.79V775.87z M421.7,741.8h38.89v4.62H421.7V741.8z"/>
		<path d="M473.73,780.59l33.04-71.83H512l33.04,71.83h-5.64l-31.2-68.55h2.26l-31.09,68.55H473.73z M485.83,760.37l1.74-4.41h43
			l1.74,4.41H485.83z"/>
		<path d="M558.08,780.59v-71.83h25.76c6.02,0,11.19,0.96,15.5,2.87c4.31,1.92,7.63,4.67,9.95,8.26c2.33,3.59,3.49,7.95,3.49,13.08
			c0,4.99-1.16,9.29-3.49,12.88c-2.33,3.59-5.64,6.36-9.95,8.31c-4.31,1.95-9.48,2.92-15.5,2.92h-22.88l2.36-2.46v25.96H558.08z
			 M563.31,754.93l-2.36-2.46h22.88c7.73,0,13.6-1.71,17.6-5.13c4-3.42,6-8.21,6-14.37c0-6.22-2-11.03-6-14.42
			c-4-3.39-9.87-5.08-17.6-5.08h-22.88l2.36-2.57V754.93z M607.95,780.59l-18.68-26.07h5.95l18.68,26.07H607.95z"/>
		<path d="M631.96,780.59v-71.83h29.96c7.73,0,13.79,1.57,18.16,4.72c4.38,3.15,6.57,7.7,6.57,13.65c0,3.9-0.92,7.18-2.77,9.85
			c-1.85,2.67-4.4,4.67-7.65,6c-3.25,1.33-6.89,2-10.93,2l1.85-2.05c4.92,0,9.13,0.72,12.62,2.15c3.49,1.44,6.14,3.52,7.95,6.26
			c1.81,2.74,2.72,6.16,2.72,10.26c0,6.02-2.19,10.69-6.57,14.01c-4.38,3.32-11.02,4.98-19.91,4.98H631.96z M637.2,776.07h26.78
			c6.91,0,12.18-1.18,15.8-3.54c3.63-2.36,5.44-6.14,5.44-11.34c0-5.13-1.81-8.88-5.44-11.24c-3.63-2.36-8.89-3.54-15.8-3.54h-27.4
			v-4.51h25.14c6.22,0,11.05-1.2,14.47-3.59c3.42-2.39,5.13-5.99,5.13-10.78c0-4.72-1.71-8.28-5.13-10.67
			c-3.42-2.39-8.25-3.59-14.47-3.59H637.2V776.07z"/>
		<path d="M739.61,781.1c-5.34,0-10.28-0.91-14.83-2.72c-4.55-1.81-8.52-4.38-11.9-7.7c-3.39-3.32-6-7.18-7.85-11.6
			c-1.85-4.41-2.77-9.22-2.77-14.42c0-5.2,0.92-10.01,2.77-14.42c1.85-4.41,4.46-8.28,7.85-11.6c3.39-3.32,7.35-5.88,11.9-7.7
			c4.55-1.81,9.49-2.72,14.83-2.72c5.34,0,10.28,0.91,14.83,2.72c4.55,1.81,8.5,4.36,11.85,7.65c3.35,3.28,5.97,7.13,7.85,11.54
			c1.88,4.41,2.82,9.25,2.82,14.52c0,5.27-0.94,10.11-2.82,14.52c-1.88,4.41-4.5,8.26-7.85,11.54c-3.35,3.28-7.3,5.83-11.85,7.65
			C749.89,780.2,744.95,781.1,739.61,781.1z M739.61,776.28c4.58,0,8.83-0.79,12.72-2.36c3.9-1.57,7.29-3.8,10.16-6.67
			c2.87-2.87,5.11-6.22,6.72-10.06c1.61-3.83,2.41-8,2.41-12.52c0-4.58-0.81-8.77-2.41-12.57c-1.61-3.8-3.85-7.13-6.72-10
			c-2.87-2.87-6.26-5.1-10.16-6.67c-3.9-1.57-8.14-2.36-12.72-2.36c-4.58,0-8.83,0.79-12.73,2.36c-3.9,1.58-7.3,3.8-10.21,6.67
			c-2.91,2.87-5.17,6.21-6.77,10c-1.61,3.8-2.41,7.99-2.41,12.57c0,4.52,0.8,8.69,2.41,12.52c1.61,3.83,3.86,7.18,6.77,10.06
			c2.91,2.87,6.31,5.1,10.21,6.67C730.79,775.49,735.03,776.28,739.61,776.28z"/>
		<path d="M825.61,781.1c-5.34,0-10.28-0.91-14.83-2.72c-4.55-1.81-8.52-4.38-11.9-7.7c-3.39-3.32-6-7.18-7.85-11.6
			c-1.85-4.41-2.77-9.22-2.77-14.42c0-5.2,0.92-10.01,2.77-14.42c1.85-4.41,4.46-8.28,7.85-11.6c3.39-3.32,7.35-5.88,11.9-7.7
			c4.55-1.81,9.49-2.72,14.83-2.72c5.34,0,10.28,0.91,14.83,2.72c4.55,1.81,8.5,4.36,11.85,7.65c3.35,3.28,5.97,7.13,7.85,11.54
			c1.88,4.41,2.82,9.25,2.82,14.52c0,5.27-0.94,10.11-2.82,14.52c-1.88,4.41-4.5,8.26-7.85,11.54c-3.35,3.28-7.3,5.83-11.85,7.65
			C835.88,780.2,830.94,781.1,825.61,781.1z M825.61,776.28c4.58,0,8.83-0.79,12.72-2.36c3.9-1.57,7.29-3.8,10.16-6.67
			c2.87-2.87,5.11-6.22,6.72-10.06c1.61-3.83,2.41-8,2.41-12.52c0-4.58-0.81-8.77-2.41-12.57c-1.61-3.8-3.85-7.13-6.72-10
			c-2.87-2.87-6.26-5.1-10.16-6.67c-3.9-1.57-8.14-2.36-12.72-2.36c-4.58,0-8.83,0.79-12.73,2.36c-3.9,1.58-7.3,3.8-10.21,6.67
			c-2.91,2.87-5.17,6.21-6.77,10c-1.61,3.8-2.41,7.99-2.41,12.57c0,4.52,0.8,8.69,2.41,12.52c1.61,3.83,3.86,7.18,6.77,10.06
			c2.91,2.87,6.31,5.1,10.21,6.67C816.78,775.49,821.02,776.28,825.61,776.28z"/>
		<path d="M881.12,780.59v-71.83h5.23v71.83H881.12z M885.64,762.42l-0.21-6.57l45.77-47.1h6.36l-32.02,33.15l-2.98,3.18
			L885.64,762.42z M933.36,780.59l-32.33-36.94l3.59-3.8l35.1,40.74H933.36z"/>
	</g>
</g>
</svg>
