<?xml version="1.0" encoding="utf-8"?>
<!-- Generator: Adobe Illustrator 24.0.2, SVG Export Plug-In . SVG Version: 6.00 Build 0)  -->
<svg version="1.1" id="Layer_1" xmlns="http://www.w3.org/2000/svg" xmlns:xlink="http://www.w3.org/1999/xlink" x="0px" y="0px"
	 viewBox="0 0 1080 1080" style="enable-background:new 0 0 1080 1080;" xml:space="preserve">
<style type="text/css">
	.st0{fill-rule:evenodd;clip-rule:evenodd;}
	.st1{fill-rule:evenodd;clip-rule:evenodd;fill:none;}
	.st2{fill-rule:evenodd;clip-rule:evenodd;fill:#879694;}
	.st3{fill-rule:evenodd;clip-rule:evenodd;fill:#FCFCFC;}
	.st4{fill:#FCFCFC;}
</style>
<g>
	<path class="st2" d="M373.22,308.86c-35.78,61.92-194.42,336.75-233.27,404.05h108.11l125.19-216.77l28.48,49.36l54.06-93.64
		C437.91,420.93,391.64,340.77,373.22,308.86z"/>
	<line class="st2" x1="753.22" y1="574.73" x2="750.81" y2="570.58"/>
	<path class="st2" d="M902,645.28l38.7,67.33H832.78c-0.73-1.26-3.62-6.26-7.87-13.65c-20.26-35.09-71.7-124.16-71.7-124.23
		l-2.41-4.15l-46.29-80.15h97.72c59.24-0.08,59.94-90.03,0-90.33c-37.25-0.03-112.24,0-149.87,0l-54.01-93.62h213.88
		c138.88,9.53,180.83,201.74,47.17,264.9v0.03c0.2,0.33,0.45,0.75,0.73,1.28c0.55,0.93,1.28,2.16,2.14,3.67
		c0.3,0.53,0.6,1.08,0.95,1.66l0.53,0.9c0.18,0.3,0.35,0.63,0.55,0.96c0.1,0.18,0.23,0.38,0.33,0.58c0.23,0.38,0.45,0.78,0.68,1.18
		c1.46,2.51,3.14,5.4,4.95,8.57c0.5,0.85,1.01,1.73,1.53,2.64c2.14,3.69,4.47,7.74,6.94,12.04c2.04,3.52,4.15,7.19,6.36,10.98v0.03
		l4.45,7.69l2.84,4.93c1.43,2.49,2.89,5,4.32,7.51l5.15,8.97L902,645.28z"/>
	<path class="st2" d="M812.22,306.49h-21.99C797.8,305.99,805.14,305.99,812.22,306.49z"/>
	<path class="st2" d="M866.41,712.61c-1.76,0.2-3.54,0.3-5.38,0.3h-28.07c-0.03-0.03-0.08-0.13-0.18-0.3H866.41z"/>
	<path class="st2" d="M901.85,645l-5.15-8.97c1.46,2.51,2.92,5.05,4.37,7.57C901.34,644.05,901.6,644.53,901.85,645z"/>
	<path class="st2" d="M413.19,712.92l125.5-217.36c0,0,125.5,217.36,125.5,217.36l108.11,0
		c-40.97-70.95-196.09-339.65-234.08-405.45l-19.05,34.65c-62.98,109.05-150.5,260.68-214.1,370.8L413.19,712.92z"/>
</g>
</svg>
